                     http://www.imdb.com/title/tt2155776/

                http://en.wikipedia.org/wiki/Yeh_Jo_Mohabbat_Hai

Source                                   : DVD9
Format                                   : Matroska
Format version                           : Version 2
File size                                : 1.12 GiB
Duration                                 : 2h 21mn
Overall bit rate                         : 1 139 Kbps

Video
ID                                       : 1
Format                                   : AVC
Format/Info                              : Advanced Video Codec
Format profile                           : High@L3.1
Format settings, CABAC                   : Yes
Format settings, ReFrames                : 5 frames
Codec ID                                 : V_MPEG4/ISO/AVC
Duration                                 : 2h 21mn
Bit rate                                 : 1 000 Kbps
Width                                    : 1 280 pixels
Height                                   : 544 pixels
Display aspect ratio                     : 2.35:1
Frame rate                               : 23.976 fps
Color space                              : YUV
Chroma subsampling                       : 4:2:0
Bit depth                                : 8 bits
Scan type                                : Progressive
Bits/(Pixel*Frame)                       : 0.060
Stream size                              : 999 MiB (87%)

Audio
ID                                       : 2
Format                                   : AC-3
Bit rate mode                            : Constant
Bit rate                                 : 128 Kbps
Channel(s)                               : 2 channels
Channel positions                        : Front: L R
Sampling rate                            : 44.1 KHz
Bit depth                                : 16 bits
Compression mode                         : Lossy
Stream size                              : 129 MiB (11%)
Language                                 : Hindi


Subtitles
Language                                 : English
Language                                 : Arabic
 
http://www.shotpix.com/images/27492347906882444784.png
 
http://www.shotpix.com/images/20049433730832863022.png
 
http://www.shotpix.com/images/00181192620991066011.png
 
http://www.shotpix.com/images/11246977100701015620.png
 
http://www.shotpix.com/images/77315903701319477863.png
 
http://www.shotpix.com/images/32164906915515388618.png
 
http://www.shotpix.com/images/83842167912351319106.png
 
http://www.shotpix.com/images/11854756976427383953.png
 
                                 Check The Sample First